%TF.GenerationSoftware,KiCad,Pcbnew,8.0.0-8.0.0-1~ubuntu23.10.1*%
%TF.CreationDate,2024-02-25T10:57:17+11:00*%
%TF.ProjectId,tbc,7462632e-6b69-4636-9164-5f7063625858,rev?*%
%TF.SameCoordinates,Original*%
%TF.FileFunction,Soldermask,Bot*%
%TF.FilePolarity,Negative*%
%FSLAX46Y46*%
G04 Gerber Fmt 4.6, Leading zero omitted, Abs format (unit mm)*
G04 Created by KiCad (PCBNEW 8.0.0-8.0.0-1~ubuntu23.10.1) date 2024-02-25 10:57:17*
%MOMM*%
%LPD*%
G01*
G04 APERTURE LIST*
%ADD10C,3.200000*%
%ADD11O,5.500000X2.500000*%
%ADD12O,5.000000X2.500000*%
%ADD13O,2.500000X5.000000*%
%ADD14O,4.500000X2.800000*%
%ADD15O,2.000000X4.000000*%
%ADD16C,1.400000*%
%ADD17C,2.290000*%
%ADD18O,4.580000X2.500000*%
%ADD19C,1.780000*%
%ADD20R,1.900000X1.900000*%
%ADD21C,1.900000*%
%ADD22C,0.900000*%
%ADD23O,2.100000X2.500000*%
%ADD24O,3.900000X2.500000*%
%ADD25O,2.000000X3.800000*%
%ADD26C,1.800000*%
%ADD27C,1.600000*%
%ADD28R,0.600000X0.900000*%
%ADD29R,0.900000X0.600000*%
%ADD30R,1.200000X2.300000*%
%ADD31R,0.800000X1.800000*%
G04 APERTURE END LIST*
D10*
%TO.C,MH1*%
X64750000Y-67100000D03*
%TD*%
D11*
%TO.C,J7*%
X90237500Y-74100000D03*
D12*
X90237500Y-68100000D03*
D13*
X85337500Y-71100000D03*
%TD*%
D14*
%TO.C,J5*%
X157800000Y-64975000D03*
D15*
X161550000Y-68675000D03*
X154050000Y-68675000D03*
%TD*%
D16*
%TO.C,X1*%
X108465000Y-92660000D03*
X116085000Y-92660000D03*
X116085000Y-85040000D03*
X108465000Y-85040000D03*
%TD*%
D17*
%TO.C,J4*%
X169380000Y-66225000D03*
D18*
X176140000Y-65415000D03*
D17*
X182900000Y-66225000D03*
D19*
X179490000Y-69225000D03*
X172790000Y-69225000D03*
X179490000Y-71715000D03*
X172790000Y-71715000D03*
%TD*%
D14*
%TO.C,J3*%
X126400000Y-65100000D03*
D15*
X130150000Y-68800000D03*
X122650000Y-68800000D03*
%TD*%
D17*
%TO.C,J1*%
X103190000Y-66195000D03*
D18*
X109950000Y-65385000D03*
D17*
X116710000Y-66195000D03*
D19*
X113300000Y-69195000D03*
X106600000Y-69195000D03*
X113300000Y-71685000D03*
X106600000Y-71685000D03*
%TD*%
D20*
%TO.C,SW1*%
X64500000Y-109850000D03*
D21*
X71000000Y-109850000D03*
X64500000Y-114350000D03*
X71000000Y-114350000D03*
%TD*%
D22*
%TO.C,J8*%
X64430000Y-96890000D03*
X65700000Y-96890000D03*
X64430000Y-98160000D03*
X65700000Y-98160000D03*
X64430000Y-99430000D03*
X65700000Y-99430000D03*
X64430000Y-100700000D03*
X65700000Y-100700000D03*
X64430000Y-101970000D03*
X65700000Y-101970000D03*
%TD*%
D10*
%TO.C,MH2*%
X64750000Y-124100000D03*
%TD*%
%TO.C,MH3*%
X234750000Y-67100000D03*
%TD*%
D23*
%TO.C,J6*%
X228530000Y-64590000D03*
X188930000Y-64590000D03*
D24*
X223730000Y-64590000D03*
D25*
X227480000Y-68290000D03*
X219980000Y-68290000D03*
D24*
X208730000Y-64590000D03*
D25*
X212480000Y-68290000D03*
X204980000Y-68290000D03*
D24*
X193730000Y-64590000D03*
D25*
X197480000Y-68290000D03*
X189980000Y-68290000D03*
%TD*%
D26*
%TO.C,J9*%
X77270000Y-125100000D03*
X77270000Y-122560000D03*
X79810000Y-125100000D03*
X79810000Y-122560000D03*
X82350000Y-125100000D03*
X82350000Y-122560000D03*
X84890000Y-125100000D03*
X84890000Y-122560000D03*
X87430000Y-125100000D03*
X87430000Y-122560000D03*
X89970000Y-125100000D03*
X89970000Y-122560000D03*
X92510000Y-125100000D03*
X92510000Y-122560000D03*
X95050000Y-125100000D03*
X95050000Y-122560000D03*
X97590000Y-125100000D03*
X97590000Y-122560000D03*
X100130000Y-125100000D03*
X100130000Y-122560000D03*
X102670000Y-125100000D03*
X102670000Y-122560000D03*
X105210000Y-125100000D03*
X105210000Y-122560000D03*
X107750000Y-125100000D03*
X107750000Y-122560000D03*
%TD*%
D27*
%TO.C,SW2*%
X76550000Y-69100000D03*
X71470000Y-69100000D03*
X76550000Y-74180000D03*
X71470000Y-74180000D03*
%TD*%
D14*
%TO.C,J2*%
X141400000Y-65100000D03*
D15*
X145150000Y-68800000D03*
X137650000Y-68800000D03*
%TD*%
D10*
%TO.C,MH4*%
X234750000Y-124100000D03*
%TD*%
D28*
%TO.C,C38*%
X216400000Y-80100000D03*
X214900000Y-80100000D03*
%TD*%
%TO.C,C40*%
X221800000Y-82600000D03*
X220300000Y-82600000D03*
%TD*%
D29*
%TO.C,C43*%
X222000000Y-92300000D03*
X222000000Y-90800000D03*
%TD*%
%TO.C,C4*%
X134000000Y-85150000D03*
X134000000Y-83650000D03*
%TD*%
D28*
%TO.C,C65*%
X184600000Y-116900000D03*
X183100000Y-116900000D03*
%TD*%
%TO.C,C13*%
X137350000Y-86400000D03*
X138850000Y-86400000D03*
%TD*%
D29*
%TO.C,C57*%
X87750000Y-110500000D03*
X87750000Y-109000000D03*
%TD*%
D28*
%TO.C,C33*%
X207500000Y-82600000D03*
X209000000Y-82600000D03*
%TD*%
%TO.C,C64*%
X159600000Y-117100000D03*
X158100000Y-117100000D03*
%TD*%
D30*
%TO.C,C1*%
X135650000Y-88500000D03*
X132350000Y-88500000D03*
%TD*%
D28*
%TO.C,C63*%
X181500000Y-91850000D03*
X183000000Y-91850000D03*
%TD*%
D29*
%TO.C,C58*%
X222100000Y-89100000D03*
X222100000Y-87600000D03*
%TD*%
%TO.C,C17*%
X128100000Y-84000000D03*
X128100000Y-82500000D03*
%TD*%
D28*
%TO.C,C12*%
X137200000Y-91270000D03*
X138700000Y-91270000D03*
%TD*%
%TO.C,C39*%
X218900000Y-82600000D03*
X217400000Y-82600000D03*
%TD*%
%TO.C,C30*%
X203000000Y-97650000D03*
X201500000Y-97650000D03*
%TD*%
D30*
%TO.C,C31*%
X215200000Y-86550000D03*
X211900000Y-86550000D03*
%TD*%
D29*
%TO.C,C5*%
X135800000Y-92790000D03*
X135800000Y-94290000D03*
%TD*%
%TO.C,C18*%
X128350000Y-92550000D03*
X128350000Y-94050000D03*
%TD*%
D28*
%TO.C,C26*%
X184575000Y-111625000D03*
X183075000Y-111625000D03*
%TD*%
D29*
%TO.C,C45*%
X205650000Y-86750000D03*
X205650000Y-88250000D03*
%TD*%
D28*
%TO.C,C24*%
X181500000Y-86575000D03*
X183000000Y-86575000D03*
%TD*%
%TO.C,C23*%
X159550000Y-86250000D03*
X158050000Y-86250000D03*
%TD*%
%TO.C,C35*%
X210450000Y-82600000D03*
X211950000Y-82600000D03*
%TD*%
D29*
%TO.C,C19*%
X128300000Y-89650000D03*
X128300000Y-91150000D03*
%TD*%
D28*
%TO.C,C20*%
X132400000Y-93750000D03*
X130900000Y-93750000D03*
%TD*%
D31*
%TO.C,L1*%
X130900000Y-91500000D03*
X132500000Y-91500000D03*
%TD*%
D29*
%TO.C,C2*%
X129780000Y-85140000D03*
X129780000Y-83640000D03*
%TD*%
D28*
%TO.C,C34*%
X209000000Y-80100000D03*
X210500000Y-80100000D03*
%TD*%
%TO.C,C32*%
X206000000Y-80100000D03*
X207500000Y-80100000D03*
%TD*%
%TO.C,C25*%
X159475000Y-111650000D03*
X157975000Y-111650000D03*
%TD*%
D29*
%TO.C,C21*%
X128070000Y-87740000D03*
X128070000Y-86240000D03*
%TD*%
%TO.C,C3*%
X131450000Y-85150000D03*
X131450000Y-83650000D03*
%TD*%
%TO.C,C59*%
X136900000Y-84000000D03*
X136900000Y-82500000D03*
%TD*%
D28*
%TO.C,C36*%
X213450000Y-80100000D03*
X211950000Y-80100000D03*
%TD*%
D29*
%TO.C,C16*%
X138550000Y-84000000D03*
X138550000Y-82500000D03*
%TD*%
D28*
%TO.C,C60*%
X110200000Y-87200000D03*
X108700000Y-87200000D03*
%TD*%
D29*
%TO.C,C46*%
X225000000Y-85000000D03*
X225000000Y-83500000D03*
%TD*%
%TO.C,C15*%
X138700000Y-92800000D03*
X138700000Y-94300000D03*
%TD*%
D28*
%TO.C,C37*%
X213400000Y-82600000D03*
X214900000Y-82600000D03*
%TD*%
D29*
%TO.C,C56*%
X85750000Y-110450000D03*
X85750000Y-108950000D03*
%TD*%
%TO.C,C41*%
X201950000Y-91350000D03*
X201950000Y-89850000D03*
%TD*%
D31*
%TO.C,L3*%
X213800000Y-89550000D03*
X215400000Y-89550000D03*
%TD*%
D28*
%TO.C,C62*%
X159525000Y-91450000D03*
X158025000Y-91450000D03*
%TD*%
M02*
