M48
; DRILL file {KiCad 8.0.0-8.0.0-1~ubuntu23.10.1} date 2024-02-25T10:57:28+1100
; FORMAT={-:-/ absolute / metric / decimal}
; #@! TF.CreationDate,2024-02-25T10:57:28+11:00
; #@! TF.GenerationSoftware,Kicad,Pcbnew,8.0.0-8.0.0-1~ubuntu23.10.1
; #@! TF.FileFunction,Plated,1,4,PTH
FMAT,2
METRIC
; #@! TA.AperFunction,Plated,PTH,ViaDrill
T1C0.300
; #@! TA.AperFunction,Plated,PTH,ComponentDrill
T2C0.375
; #@! TA.AperFunction,Plated,PTH,ViaDrill
T3C0.400
; #@! TA.AperFunction,Plated,PTH,ComponentDrill
T4C0.700
; #@! TA.AperFunction,Plated,PTH,ComponentDrill
T5C0.800
; #@! TA.AperFunction,Plated,PTH,ComponentDrill
T6C0.890
; #@! TA.AperFunction,Plated,PTH,ComponentDrill
T7C1.000
; #@! TA.AperFunction,Plated,PTH,ComponentDrill
T8C1.150
; #@! TA.AperFunction,Plated,PTH,ComponentDrill
T9C1.500
%
G90
G05
T1
X64.43Y-94.3
X71.5Y-105.45
X78.4Y-119.05
X78.8Y-103.45
X87.8Y-113.5
X93.25Y-106.3
X95.79Y-110.28
X95.864Y-112.874
X95.881Y-113.682
X96.354Y-111.025
X98.422Y-108.178
X99.591Y-108.95
X110.575Y-106.8
X112.375Y-117.2
X112.88Y-81.29
X113.225Y-108.225
X115.504Y-117.731
X118.01Y-93.875
X118.05Y-90.85
X118.6Y-116.525
X121.525Y-115.925
X123.25Y-84.68
X123.975Y-92.525
X124.091Y-93.328
X131.225Y-77.5
X131.425Y-76.25
X132.457Y-77.05
X133.527Y-79.075
X134.75Y-73.4
X136.3Y-79.41
X137.3Y-105.625
X137.325Y-106.825
X139.26Y-114.45
X146.15Y-118.6
X149.95Y-84.9
X150.04Y-107.044
X153.005Y-106.825
X153.05Y-96.4
X153.113Y-85.826
X153.15Y-117.45
X153.876Y-106.599
X153.913Y-85.794
X154.679Y-106.553
X154.702Y-85.922
X155.478Y-106.516
X155.541Y-85.911
X156.278Y-106.531
X156.35Y-85.852
X157.08Y-106.613
X157.125Y-114.825
X157.15Y-85.875
X158.34Y-73.12
X178.15Y-116.55
X180.55Y-117.3
X181.375Y-117.375
X182.0Y-81.625
X182.15Y-106.625
X186.13Y-72.08
X186.73Y-68.35
X198.45Y-98.0
X198.5Y-117.85
X199.248Y-97.947
X199.3Y-116.9
X200.048Y-97.95
X207.5Y-78.35
X207.5Y-81.6
X209.15Y-78.3
X209.15Y-81.725
X210.45Y-81.728
X211.95Y-81.75
X213.35Y-81.7
X213.75Y-78.1
X214.84Y-81.725
X216.4Y-81.75
X217.503Y-81.703
X218.0Y-107.8
X218.9Y-81.65
X220.3Y-81.725
X220.85Y-86.25
X221.75Y-81.725
X228.23Y-85.02
T2
X64.43Y-96.89
X64.43Y-98.16
X64.43Y-99.43
X64.43Y-100.7
X64.43Y-101.97
X65.7Y-96.89
X65.7Y-98.16
X65.7Y-99.43
X65.7Y-100.7
X65.7Y-101.97
T3
X64.75Y-73.1
X64.75Y-85.1
X64.75Y-106.1
X64.75Y-118.1
X68.05Y-81.05
X68.75Y-90.1
X70.25Y-121.1
X70.25Y-125.1
X71.7Y-86.6
X71.75Y-94.1
X74.75Y-102.1
X74.75Y-111.1
X74.75Y-117.1
X77.45Y-77.9
X77.8Y-91.35
X80.45Y-82.8
X81.75Y-68.1
X81.75Y-71.1
X85.75Y-107.55
X87.05Y-112.7
X87.75Y-104.1
X87.75Y-107.6
X87.8Y-111.9
X89.85Y-82.95
X91.75Y-89.1
X92.6Y-82.9
X98.75Y-68.1
X98.75Y-71.1
X99.55Y-75.0
X99.55Y-103.0
X99.75Y-89.1
X100.85Y-75.0
X100.95Y-103.0
X102.025Y-89.125
X102.25Y-75.0
X102.25Y-103.0
X106.25Y-98.1
X106.51Y-103.6
X107.7Y-115.15
X109.21Y-78.34
X109.22Y-111.91
X109.3Y-109.405
X111.35Y-87.2
X111.75Y-100.6
X111.88Y-103.67
X112.3Y-111.9
X115.25Y-122.6
X115.515Y-111.91
X117.02Y-78.49
X118.525Y-111.875
X118.75Y-68.1
X118.75Y-71.1
X118.75Y-97.1
X118.75Y-100.1
X118.75Y-106.6
X119.25Y-119.1
X121.2Y-81.0
X121.5Y-111.85
X123.85Y-88.9
X124.15Y-82.5
X125.4Y-95.725
X125.75Y-100.1
X126.75Y-106.6
X126.75Y-111.6
X126.75Y-119.1
X126.75Y-122.6
X126.9Y-82.219
X126.9Y-86.35
X126.9Y-88.66
X126.9Y-91.35
X127.405Y-95.195
X127.9Y-79.5
X128.1Y-85.15
X128.9Y-79.5
X129.15Y-82.5
X129.25Y-90.4
X129.55Y-92.45
X129.7Y-87.6
X129.8Y-86.4
X130.05Y-116.3
X130.8Y-95.2
X131.3Y-82.5
X131.401Y-86.334
X132.212Y-79.397
X132.35Y-73.4
X132.375Y-124.375
X132.65Y-86.35
X132.89Y-95.17
X133.35Y-114.1
X133.55Y-82.5
X133.75Y-68.1
X133.75Y-71.1
X133.95Y-86.35
X135.25Y-79.52
X135.8Y-82.5
X135.8Y-95.25
X135.929Y-91.354
X135.98Y-86.51
X137.05Y-85.1
X137.25Y-92.8
X137.3Y-79.52
X137.75Y-112.1
X138.57Y-85.08
X139.275Y-124.175
X139.3Y-95.25
X139.85Y-82.475
X139.85Y-91.3
X139.85Y-86.25
X140.875Y-77.675
X142.6Y-82.75
X142.7Y-84.35
X142.7Y-88.85
X142.7Y-94.9
X143.75Y-112.1
X143.75Y-122.1
X143.75Y-125.6
X144.75Y-78.6
X144.8Y-73.57
X148.025Y-109.7
X148.3Y-85.35
X148.325Y-117.775
X148.4Y-92.75
X148.75Y-100.1
X148.85Y-110.2
X149.15Y-118.5
X149.2Y-93.4
X149.275Y-85.825
X149.75Y-68.1
X149.75Y-71.1
X149.95Y-92.7
X149.975Y-117.8
X150.525Y-93.4
X150.625Y-109.825
X150.75Y-82.1
X150.8Y-118.5
X151.5Y-92.5
X151.55Y-84.9
X151.6Y-110.35
X152.325Y-118.375
X152.4Y-84.9
X157.047Y-124.853
X157.075Y-121.475
X157.725Y-96.112
X157.996Y-110.504
X158.0Y-84.95
X158.0Y-118.4
X158.05Y-92.7
X159.1Y-110.275
X159.148Y-118.312
X159.198Y-84.97
X159.525Y-92.562
X162.75Y-124.1
X165.75Y-68.1
X165.75Y-71.1
X165.75Y-78.1
X173.025Y-84.825
X173.225Y-109.8
X173.25Y-117.6
X173.379Y-96.191
X174.0Y-85.3
X174.125Y-110.275
X174.125Y-118.45
X174.2Y-96.9
X174.95Y-117.6
X174.975Y-96.1
X175.425Y-109.875
X175.45Y-84.9
X175.55Y-96.9
X175.775Y-118.475
X176.625Y-110.075
X176.625Y-85.25
X176.625Y-93.6
X176.925Y-118.45
X180.4Y-86.6
X180.425Y-91.6
X182.2Y-121.5
X182.95Y-110.15
X182.975Y-85.175
X182.975Y-93.34
X183.025Y-118.45
X184.0Y-84.825
X184.05Y-96.625
X184.175Y-110.15
X184.233Y-118.177
X187.4Y-126.1
X192.17Y-121.475
X193.5Y-72.1
X193.75Y-80.1
X193.75Y-85.6
X193.75Y-90.1
X193.75Y-94.6
X194.75Y-106.1
X194.75Y-115.6
X197.75Y-126.1
X198.75Y-80.1
X200.35Y-86.0
X202.25Y-122.6
X202.75Y-110.6
X203.75Y-83.475
X203.956Y-81.796
X204.15Y-92.975
X204.15Y-94.05
X204.175Y-95.1
X204.2Y-89.35
X204.412Y-84.225
X204.45Y-82.743
X204.65Y-90.6
X204.8Y-92.325
X205.725Y-91.4
X205.75Y-85.1
X205.95Y-100.85
X206.75Y-83.85
X206.75Y-119.1
X206.75Y-126.1
X207.475Y-91.325
X207.5Y-86.725
X208.5Y-95.15
X210.175Y-74.2
X210.25Y-110.6
X210.35Y-86.55
X210.75Y-83.85
X211.575Y-78.1
X212.716Y-78.074
X212.85Y-95.05
X213.5Y-83.85
X213.75Y-123.6
X213.775Y-116.85
X213.8Y-111.625
X213.9Y-92.725
X214.9Y-95.0
X215.2Y-83.85
X217.25Y-83.85
X217.52Y-101.816
X218.025Y-119.175
X218.25Y-126.1
X218.725Y-91.2
X218.75Y-83.85
X219.7Y-94.95
X220.275Y-92.375
X220.55Y-87.475
X221.375Y-113.85
X221.8Y-77.75
X221.97Y-83.88
X222.05Y-85.075
X222.15Y-71.65
X222.25Y-123.6
X223.25Y-89.875
X223.3Y-91.1
X224.0Y-119.15
X227.25Y-84.1
X228.75Y-101.6
X228.75Y-109.6
X228.75Y-126.1
X232.25Y-105.6
X232.25Y-114.6
X233.75Y-76.1
X234.1Y-83.4
X234.2Y-96.25
X235.75Y-101.6
X235.75Y-109.6
X235.75Y-119.1
X237.3Y-89.7
T4
X108.465Y-85.04
X108.465Y-92.66
X116.085Y-85.04
X116.085Y-92.66
T5
X71.47Y-69.1
X71.47Y-74.18
X76.55Y-69.1
X76.55Y-74.18
T6
X106.6Y-69.195
X106.6Y-71.685
X113.3Y-69.195
X113.3Y-71.685
X172.79Y-69.225
X172.79Y-71.715
X179.49Y-69.225
X179.49Y-71.715
T7
X64.5Y-109.85
X64.5Y-114.35
X71.0Y-109.85
X71.0Y-114.35
X77.27Y-122.56
X77.27Y-125.1
X79.81Y-122.56
X79.81Y-125.1
X82.35Y-122.56
X82.35Y-125.1
X84.89Y-122.56
X84.89Y-125.1
X87.43Y-122.56
X87.43Y-125.1
X89.97Y-122.56
X89.97Y-125.1
X92.51Y-122.56
X92.51Y-125.1
X95.05Y-122.56
X95.05Y-125.1
X97.59Y-122.56
X97.59Y-125.1
X100.13Y-122.56
X100.13Y-125.1
X102.67Y-122.56
X102.67Y-125.1
X105.21Y-122.56
X105.21Y-125.1
X107.75Y-122.56
X107.75Y-125.1
T7
G00X85.337Y-70.1
M15
G01X85.337Y-72.1
M16
G05
G00X91.237Y-68.1
M15
G01X89.237Y-68.1
M16
G05
G00X91.487Y-74.1
M15
G01X88.987Y-74.1
M16
G05
G00X109.2Y-65.385
M15
G01X110.7Y-65.385
M16
G05
G00X122.65Y-69.55
M15
G01X122.65Y-68.05
M16
G05
G00X130.15Y-69.55
M15
G01X130.15Y-68.05
M16
G05
G00X137.65Y-69.55
M15
G01X137.65Y-68.05
M16
G05
G00X145.15Y-69.55
M15
G01X145.15Y-68.05
M16
G05
G00X154.05Y-69.425
M15
G01X154.05Y-67.925
M16
G05
G00X161.55Y-69.425
M15
G01X161.55Y-67.925
M16
G05
G00X175.39Y-65.415
M15
G01X176.89Y-65.415
M16
G05
T8
G00X189.98Y-69.04
M15
G01X189.98Y-67.54
M16
G05
G00X197.48Y-69.04
M15
G01X197.48Y-67.54
M16
G05
G00X204.98Y-69.04
M15
G01X204.98Y-67.54
M16
G05
G00X212.48Y-69.04
M15
G01X212.48Y-67.54
M16
G05
G00X219.98Y-69.04
M15
G01X219.98Y-67.54
M16
G05
G00X227.48Y-69.04
M15
G01X227.48Y-67.54
M16
G05
T9
G00X127.0Y-65.1
M15
G01X125.8Y-65.1
M16
G05
G00X142.0Y-65.1
M15
G01X140.8Y-65.1
M16
G05
G00X158.4Y-64.975
M15
G01X157.2Y-64.975
M16
G05
G00X194.33Y-64.59
M15
G01X193.13Y-64.59
M16
G05
G00X209.33Y-64.59
M15
G01X208.13Y-64.59
M16
G05
G00X224.33Y-64.59
M15
G01X223.13Y-64.59
M16
G05
M30
